<svg xmlns="http://www.w3.org/2000/svg" width="128" height="128" viewBox="0 0 128 128">
  <defs>
    <linearGradient id="bg" x1="0" y1="0" x2="1" y2="1">
      <stop offset="0%" stop-color="#111827"/>
      <stop offset="100%" stop-color="#1f2937"/>
    </linearGradient>
    <linearGradient id="spot" x1="0" y1="0" x2="1" y2="1">
      <stop offset="0%" stop-color="#0ea5e9"/>
      <stop offset="100%" stop-color="#22d3ee"/>
    </linearGradient>
  </defs>
  <rect x="4" y="4" width="120" height="120" rx="28" fill="url(#bg)"/>

  <rect x="16" y="18" width="44" height="20" rx="10" fill="#ef4444"/>
  <rect x="68" y="18" width="44" height="20" rx="10" fill="#22c55e"/>

  <path d="M16 48h46v56H16z" fill="#b91c1c"/>
  <path d="M62 48H16l23 28z" fill="#991b1b"/>
  <circle cx="39" cy="74" r="11" fill="none" stroke="#fff" stroke-width="5"/>
  <path d="M33 74h12" stroke="#fff" stroke-width="5" stroke-linecap="round"/>

  <path d="M66 44h46v60H66z" fill="#0b1220"/>
  <path d="M68 100c10-32 34-38 42-50v50z" fill="url(#spot)" opacity="0.9"/>
  <circle cx="95" cy="80" r="14" fill="#22c55e"/>
  <path d="M88 80l5 5 10-10" fill="none" stroke="#fff" stroke-width="5" stroke-linecap="round" stroke-linejoin="round"/>

  <path d="M52 104h28" stroke="#38bdf8" stroke-width="7" stroke-linecap="round"/>
  <path d="M74 96l10 8-10 8" fill="none" stroke="#38bdf8" stroke-width="7" stroke-linecap="round" stroke-linejoin="round"/>
</svg>
