<svg xmlns="http://www.w3.org/2000/svg" width="128" height="128" viewBox="0 0 128 128">
  <defs>
    <linearGradient id="bg" x1="0" y1="0" x2="1" y2="1">
      <stop offset="0%" stop-color="#0f172a"/>
      <stop offset="100%" stop-color="#1e3a8a"/>
    </linearGradient>
  </defs>
  <rect x="4" y="4" width="120" height="120" rx="28" fill="url(#bg)"/>

  <rect x="16" y="22" width="44" height="24" rx="12" fill="#64748b"/>
  <rect x="68" y="22" width="44" height="24" rx="12" fill="#22c55e"/>
  <path d="M81 34l7 7 13-13" fill="none" stroke="#fff" stroke-width="6" stroke-linecap="round" stroke-linejoin="round"/>

  <circle cx="38" cy="76" r="16" fill="#94a3b8"/>
  <path d="M34 72l8 8M42 72l-8 8" stroke="#0f172a" stroke-width="5" stroke-linecap="round"/>

  <path d="M50 74c9-16 22-16 31 0" fill="none" stroke="#38bdf8" stroke-width="8" stroke-linecap="round"/>
  <path d="M82 64l11 10-15 2" fill="none" stroke="#38bdf8" stroke-width="8" stroke-linecap="round" stroke-linejoin="round"/>

  <circle cx="92" cy="84" r="18" fill="#22c55e"/>
  <path d="M84 83l7 7 12-13" fill="none" stroke="#fff" stroke-width="6" stroke-linecap="round" stroke-linejoin="round"/>
</svg>
